<?xml version="1.0" encoding="UTF-8"?>
<svg version="1.1" xmlns="http://www.w3.org/2000/svg" width="50" height="50">
<path d="M0 0 C4.17334623 0.38363953 6.10840883 1.62412944 8.98828125 4.59765625 C9.69404297 5.31630859 10.39980469 6.03496094 11.12695312 6.77539062 C11.84818359 7.53013672 12.56941406 8.28488281 13.3125 9.0625 C14.05306641 9.82111328 14.79363281 10.57972656 15.55664062 11.36132812 C17.38043834 13.23219159 19.19424304 15.11174492 21 17 C24.16577674 15.61299325 26.16025983 14.02157405 28.49609375 11.48828125 C29.45805664 10.47604492 29.45805664 10.47604492 30.43945312 9.44335938 C31.7755247 8.01847757 33.10364227 6.58609708 34.42382812 5.14648438 C35.06642578 4.47552734 35.70902344 3.80457031 36.37109375 3.11328125 C36.94786865 2.49235596 37.52464355 1.87143066 38.11889648 1.23168945 C40 0 40 0 42.72680664 0.30541992 C43.47696045 0.53463135 44.22711426 0.76384277 45 1 C42.91705452 4.76678112 40.61077657 7.62560969 37.55078125 10.64453125 C36.70322266 11.48564453 35.85566406 12.32675781 34.98242188 13.19335938 C34.10134766 14.05767578 33.22027344 14.92199219 32.3125 15.8125 C31.41982422 16.69615234 30.52714844 17.57980469 29.60742188 18.49023438 C27.40940071 20.66474729 25.2068407 22.83444427 23 25 C19.47801572 23.49401013 17.19014591 21.44784174 14.48828125 18.75390625 C13.64845703 17.91666016 12.80863281 17.07941406 11.94335938 16.21679688 C11.07517578 15.34087891 10.20699219 14.46496094 9.3125 13.5625 C8.43271484 12.69044922 7.55292969 11.81839844 6.64648438 10.91992188 C5.81052734 10.08138672 4.97457031 9.24285156 4.11328125 8.37890625 C3.34798096 7.6113501 2.58268066 6.84379395 1.79418945 6.05297852 C0 4 0 4 -1 1 C-0.67 0.67 -0.34 0.34 0 0 Z " fill="#000000" transform="translate(3,20)"/>
<path d="M0 0 C4.17334623 0.38363953 6.10840883 1.62412944 8.98828125 4.59765625 C9.69404297 5.31630859 10.39980469 6.03496094 11.12695312 6.77539062 C11.84818359 7.53013672 12.56941406 8.28488281 13.3125 9.0625 C14.05306641 9.82111328 14.79363281 10.57972656 15.55664062 11.36132812 C17.38043834 13.23219159 19.19424304 15.11174492 21 17 C24.16577674 15.61299325 26.16025983 14.02157405 28.49609375 11.48828125 C29.45805664 10.47604492 29.45805664 10.47604492 30.43945312 9.44335938 C31.7755247 8.01847757 33.10364227 6.58609708 34.42382812 5.14648438 C35.06642578 4.47552734 35.70902344 3.80457031 36.37109375 3.11328125 C36.94786865 2.49235596 37.52464355 1.87143066 38.11889648 1.23168945 C40 0 40 0 42.72680664 0.30541992 C43.47696045 0.53463135 44.22711426 0.76384277 45 1 C42.91705452 4.76678112 40.61077657 7.62560969 37.55078125 10.64453125 C36.70322266 11.48564453 35.85566406 12.32675781 34.98242188 13.19335938 C34.10134766 14.05767578 33.22027344 14.92199219 32.3125 15.8125 C31.41982422 16.69615234 30.52714844 17.57980469 29.60742188 18.49023438 C27.40940071 20.66474729 25.2068407 22.83444427 23 25 C19.47801572 23.49401013 17.19014591 21.44784174 14.48828125 18.75390625 C13.64845703 17.91666016 12.80863281 17.07941406 11.94335938 16.21679688 C11.07517578 15.34087891 10.20699219 14.46496094 9.3125 13.5625 C8.43271484 12.69044922 7.55292969 11.81839844 6.64648438 10.91992188 C5.81052734 10.08138672 4.97457031 9.24285156 4.11328125 8.37890625 C3.34798096 7.6113501 2.58268066 6.84379395 1.79418945 6.05297852 C0 4 0 4 -1 1 C-0.67 0.67 -0.34 0.34 0 0 Z " fill="#000000" transform="translate(3,7)"/>
</svg>
