<?xml version="1.0" standalone="no"?>
<!DOCTYPE svg PUBLIC "-//W3C//DTD SVG 20010904//EN"
 "http://www.w3.org/TR/2001/REC-SVG-20010904/DTD/svg10.dtd">
<svg version="1.0" xmlns="http://www.w3.org/2000/svg"
 width="100.000000pt" height="100.000000pt" viewBox="0 0 100.000000 100.000000"
 preserveAspectRatio="xMidYMid meet">

<g transform="translate(0.000000,100.000000) scale(0.100000,-0.100000)"
fill="#000000" stroke="none">
<path d="M200 787 l0 -72 150 -150 150 -150 150 150 150 150 0 72 c0 40 -3 73
-7 73 -4 0 -72 -64 -150 -142 l-143 -143 -143 143 c-78 78 -146 142 -150 142
-4 0 -7 -33 -7 -73z m440 -102 l140 140 0 -50 0 -50 -140 -140 -140 -140 -140
140 -140 140 0 50 0 50 140 -140 140 -140 140 140z"/>
<path d="M382 593 l118 -118 115 115 c63 63 112 116 109 119 -2 3 -54 -44
-114 -104 l-110 -110 -108 108 c-59 59 -112 107 -117 107 -5 0 43 -53 107
-117z"/>
<path d="M200 507 l0 -72 150 -150 150 -150 150 150 150 150 0 72 c0 40 -3 73
-7 73 -4 0 -72 -64 -150 -142 l-143 -143 -143 143 c-78 78 -146 142 -150 142
-4 0 -7 -33 -7 -73z m440 -102 l140 140 0 -50 0 -50 -140 -140 -140 -140 -140
140 -140 140 0 50 0 50 140 -140 140 -140 140 140z"/>
<path d="M315 380 c27 -27 51 -47 54 -45 6 7 -80 95 -93 95 -6 0 12 -22 39
-50z"/>
<path d="M630 345 c-47 -47 -80 -85 -75 -85 6 0 48 38 95 85 47 47 80 85 75
85 -6 0 -48 -38 -95 -85z"/>
<path d="M435 260 c10 -11 20 -18 23 -15 7 6 -18 35 -31 35 -5 0 -2 -9 8 -20z"/>
<path d="M485 210 c3 -5 8 -10 11 -10 2 0 4 5 4 10 0 6 -5 10 -11 10 -5 0 -7
-4 -4 -10z"/>
</g>
</svg>
