<?xml version="1.0" encoding="UTF-8"?>
<svg version="1.1" xmlns="http://www.w3.org/2000/svg" width="48" height="48">
<path d="M0 0 C11.88 0 23.76 0 36 0 C36 11.88 36 23.76 36 36 C24.12 36 12.24 36 0 36 C0 24.12 0 12.24 0 0 Z " fill="#11599A" transform="translate(6,6)"/>
<path d="M0 0 C0 1.32 0 2.64 0 4 C-1.32 4.33 -2.64 4.66 -4 5 C-4.33 6.65 -4.66 8.3 -5 10 C-3.68 10 -2.36 10 -1 10 C-1 11.32 -1 12.64 -1 14 C-2.32 14 -3.64 14 -5 14 C-5 17.63 -5 21.26 -5 25 C-6.65 25 -8.3 25 -10 25 C-10 21.37 -10 17.74 -10 14 C-11.32 14 -12.64 14 -14 14 C-14 12.68 -14 11.36 -14 10 C-12.68 10 -11.36 10 -10 10 C-10.061875 8.906875 -10.12375 7.81375 -10.1875 6.6875 C-10 3 -10 3 -8.9375 1.0625 C-5.98831309 -0.55479605 -3.29132441 -0.18630138 0 0 Z " fill="#FBFCFD" transform="translate(36,12)"/>
</svg>
