<?xml version="1.0" encoding="UTF-8"?>
<svg version="1.1" xmlns="http://www.w3.org/2000/svg" width="64" height="64">
<path d="M0 0 C4.90708223 4.90708223 7.04375389 10.15630831 7.5 17 C7.40116071 22.89741081 5.73006929 27.48991761 1.9375 32 C-0.86791257 34.3487175 -3.56141329 36.44775534 -6.75 38.25 C-8.235 37.755 -8.235 37.755 -9.75 37.25 C-10.08 33.62 -10.41 29.99 -10.75 26.25 C-9.80125 25.816875 -8.8525 25.38375 -7.875 24.9375 C-4.54958063 23.45697799 -4.54958063 23.45697799 -2.75 20.25 C-2.40777555 15.59582831 -2.40777555 15.59582831 -3.75 11.25 C-3.789992 9.25039988 -3.79346799 7.24952758 -3.75 5.25 C-4.265625 5.57484375 -4.78125 5.8996875 -5.3125 6.234375 C-8.54955527 7.58314803 -11.2520369 7.51482188 -14.75 7.5 C-15.966875 7.50515625 -17.18375 7.5103125 -18.4375 7.515625 C-21.50288791 7.26981559 -23.18662952 6.8649234 -25.75 5.25 C-25.729375 6.19875 -25.70875 7.1475 -25.6875 8.125 C-25.75 11.25 -25.75 11.25 -26.75 13.25 C-27.25070321 16.62357334 -27.25070321 16.62357334 -26.75 20.25 C-24.20862841 23.40954305 -22.60377341 24.96540886 -18.75 26.25 C-19.08 27.57 -19.41 28.89 -19.75 30.25 C-21.75 30.25 -23.75 30.25 -25.75 30.25 C-23.77 30.91 -21.79 31.57 -19.75 32.25 C-19.75 33.9 -19.75 35.55 -19.75 37.25 C-22.75 38.25 -22.75 38.25 -24.6171875 37.53515625 C-30.39935807 34.01410686 -34.3538762 29.82964175 -36.36328125 23.23828125 C-37.88613345 15.40866744 -36.20855442 9.11344266 -32 2.5 C-22.71508186 -6.78491814 -10.66582244 -6.78734155 0 0 Z " fill="#000000" transform="translate(46.75,14.75)"/>
</svg>
