<?xml version="1.0" encoding="UTF-8"?>
<svg version="1.1" xmlns="http://www.w3.org/2000/svg" width="48" height="48">
<path d="M0 0 C1.29292969 -0.02900391 2.58585937 -0.05800781 3.91796875 -0.08789062 C5.78001953 -0.10045898 5.78001953 -0.10045898 7.6796875 -0.11328125 C8.81905762 -0.12786377 9.95842773 -0.14244629 11.13232422 -0.1574707 C14.125 0.3125 14.125 0.3125 16.4831543 2.00195312 C18.44343368 4.76062734 18.69665241 6.34563619 18.83984375 9.70703125 C18.88560547 10.74537109 18.93136719 11.78371094 18.97851562 12.85351562 C19.00623047 13.93310547 19.03394531 15.01269531 19.0625 16.125 C19.14467773 17.72698242 19.14467773 17.72698242 19.22851562 19.36132812 C19.44455075 25.48990352 19.23720134 29.9613049 16.125 35.3125 C11.55741635 37.59629183 5.26458876 36.58772605 0.25 36.625 C-1.04292969 36.65400391 -2.33585937 36.68300781 -3.66796875 36.71289062 C-5.53001953 36.72545898 -5.53001953 36.72545898 -7.4296875 36.73828125 C-8.56905762 36.75286377 -9.70842773 36.76744629 -10.88232422 36.7824707 C-14.51801022 36.21152148 -15.66493 35.19865741 -17.875 32.3125 C-18.484375 29.71875 -18.484375 29.71875 -18.625 26.8125 C-18.70234375 25.22888672 -18.70234375 25.22888672 -18.78125 23.61328125 C-18.8121875 22.52402344 -18.843125 21.43476563 -18.875 20.3125 C-18.95234375 18.72501953 -18.95234375 18.72501953 -19.03125 17.10546875 C-19.2143987 11.03866807 -18.93774032 6.61339671 -15.875 1.3125 C-11.30741635 -0.97129183 -5.01458876 0.03727395 0 0 Z " fill="#FF7F4B" transform="translate(23.875,5.6875)"/>
<path d="M0 0 C1.29292969 -0.02900391 2.58585937 -0.05800781 3.91796875 -0.08789062 C5.78001953 -0.10045898 5.78001953 -0.10045898 7.6796875 -0.11328125 C8.81905762 -0.12786377 9.95842773 -0.14244629 11.13232422 -0.1574707 C14.125 0.3125 14.125 0.3125 16.4831543 2.00195312 C18.44343368 4.76062734 18.69665241 6.34563619 18.83984375 9.70703125 C18.88560547 10.74537109 18.93136719 11.78371094 18.97851562 12.85351562 C19.00623047 13.93310547 19.03394531 15.01269531 19.0625 16.125 C19.14467773 17.72698242 19.14467773 17.72698242 19.22851562 19.36132812 C19.4458491 25.52673568 19.11063108 29.87632496 16.125 35.3125 C15.465 35.3125 14.805 35.3125 14.125 35.3125 C14.08536133 34.54059326 14.04572266 33.76868652 14.00488281 32.97338867 C13.81452035 29.48086846 13.59512184 25.99076551 13.375 22.5 C13.313125 21.28505859 13.25125 20.07011719 13.1875 18.81835938 C13.11015625 17.65498047 13.0328125 16.49160156 12.953125 15.29296875 C12.8902832 14.21942139 12.82744141 13.14587402 12.76269531 12.03979492 C12.35281756 9.22789946 12.35281756 9.22789946 10.32348633 7.46362305 C8.02314295 6.25916785 6.69286388 5.9270092 4.12109375 5.9140625 C3.38052734 5.91019531 2.63996094 5.90632812 1.87695312 5.90234375 C1.11318359 5.91394531 0.34941406 5.92554688 -0.4375 5.9375 C-1.20513672 5.92589844 -1.97277344 5.91429687 -2.76367188 5.90234375 C-7.01818121 5.91318219 -7.01818121 5.91318219 -10.859375 7.54296875 C-12.12781543 9.75298227 -12.37872493 11.46390409 -12.5625 14 C-12.62824219 14.80824219 -12.69398437 15.61648437 -12.76171875 16.44921875 C-12.79910156 17.06410156 -12.83648438 17.67898437 -12.875 18.3125 C-14.525 18.3125 -16.175 18.3125 -17.875 18.3125 C-19.73429044 14.59391912 -19.42615664 10.18786416 -18.2734375 6.265625 C-14.8609807 -2.07593607 -8.00369896 0.05949231 0 0 Z " fill="#7059BB" transform="translate(23.875,5.6875)"/>
<path d="M0 0 C0.33 0.66 0.66 1.32 1 2 C2.65 2 4.3 2 6 2 C6.12117187 2.69867187 6.24234375 3.39734375 6.3671875 4.1171875 C6.53476563 5.02726562 6.70234375 5.93734375 6.875 6.875 C7.03742187 7.77992187 7.19984375 8.68484375 7.3671875 9.6171875 C7.83044703 12.16505988 7.83044703 12.16505988 10 14 C12.83504041 14.22598148 15.54053517 14.32427103 18.375 14.3125 C19.14328125 14.32861328 19.9115625 14.34472656 20.703125 14.36132812 C24.16140954 14.36431972 26.41234935 14.31869456 29.4921875 12.6484375 C31.42925913 10.53070634 31.69581427 8.81371805 32 6 C32.33 6 32.66 6 33 6 C33 10.62 33 15.24 33 20 C28.41604218 20.10771702 23.83460364 20.18719721 19.25 20.25 C17.94804687 20.28351562 16.64609375 20.31703125 15.3046875 20.3515625 C14.05429687 20.36445312 12.80390625 20.37734375 11.515625 20.390625 C10.36352539 20.41157227 9.21142578 20.43251953 8.02441406 20.45410156 C5 20 5 20 2.63085938 18.21875 C0.23330078 14.95692179 0.32588239 11.6544938 0.25 7.75 C0.22035156 7.00492188 0.19070312 6.25984375 0.16015625 5.4921875 C0.0897657 3.66203328 0.04258168 1.83101231 0 0 Z " fill="#FFAC4D" transform="translate(5,22)"/>
<path d="M0 0 C0.75087891 -0.01546875 1.50175781 -0.0309375 2.27539062 -0.046875 C5.92489723 -0.02119685 8.24130471 0.34254312 11.55859375 1.96875 C14.51026548 5.69717744 14.29838991 8.87219444 14.1875 13.5 C14.21650391 14.71042969 14.21650391 14.71042969 14.24609375 15.9453125 C14.21354923 19.88970842 14.05802483 21.87503984 11.55859375 25.02734375 C7.58479517 26.98056678 4.37264945 27.1263069 0 27.0625 C-0.75474609 27.08634766 -1.50949219 27.11019531 -2.28710938 27.13476562 C-5.96515521 27.12504392 -8.03664882 26.82118279 -10.93359375 24.5 C-12.92971461 20.51812775 -13.02801205 17.33110567 -12.9375 12.9375 C-12.95296875 12.18275391 -12.9684375 11.42800781 -12.984375 10.65039062 C-12.96064349 7.28348214 -12.68323775 4.90786083 -10.93359375 2.00390625 C-7.36791885 -0.14442683 -4.03838606 -0.08276795 0 0 Z M-9.4140625 3.5234375 C-11.06883435 6.71929459 -10.86871399 9.98974854 -10.8125 13.5 C-10.82410156 14.22445313 -10.83570313 14.94890625 -10.84765625 15.6953125 C-10.83186921 18.54750459 -10.73977473 20.91621751 -9.4140625 23.4765625 C-6.21820541 25.13133435 -2.94775146 24.93121399 0.5625 24.875 C1.28695313 24.88660156 2.01140625 24.89820312 2.7578125 24.91015625 C5.61000459 24.89436921 7.97871751 24.80227473 10.5390625 23.4765625 C12.19383435 20.28070541 11.99371399 17.01025146 11.9375 13.5 C11.94910156 12.77554687 11.96070312 12.05109375 11.97265625 11.3046875 C11.95686921 8.45249541 11.86477473 6.08378249 10.5390625 3.5234375 C7.34320541 1.86866565 4.07275146 2.06878601 0.5625 2.125 C-0.16195313 2.11339844 -0.88640625 2.10179687 -1.6328125 2.08984375 C-4.48500459 2.10563079 -6.85371751 2.19772527 -9.4140625 3.5234375 Z " fill="#FEF9F9" transform="translate(23.4375,10.5)"/>
<path d="M0 0 C2.16783373 1.73397727 2.93453312 2.66820347 3.47998047 5.43261719 C3.62876025 8.53846121 3.77189885 11.64223688 3.875 14.75 C3.93429688 15.8225 3.99359375 16.895 4.0546875 18 C4.29876572 24.19348495 4.01073662 28.54011494 1 34 C0.34 34 -0.32 34 -1 34 C-1.05534912 33.23333008 -1.11069824 32.46666016 -1.16772461 31.67675781 C-1.4207011 28.20089775 -1.67904042 24.72545646 -1.9375 21.25 C-2.02451172 20.0434375 -2.11152344 18.836875 -2.20117188 17.59375 C-2.28818359 16.43359375 -2.37519531 15.2734375 -2.46484375 14.078125 C-2.543396 13.00981445 -2.62194824 11.94150391 -2.70288086 10.84082031 C-2.90688391 8.07021514 -2.90688391 8.07021514 -3.65454102 5.76074219 C-3.76854248 5.17969727 -3.88254395 4.59865234 -4 4 C-2.0625 1.75 -2.0625 1.75 0 0 Z " fill="#D83E89" transform="translate(39,7)"/>
<path d="M0 0 C1.08667969 -0.01740234 1.08667969 -0.01740234 2.1953125 -0.03515625 C7.50008578 -0.00579404 7.50008578 -0.00579404 10 1.8984375 C10.33 2.38570312 10.66 2.87296875 11 3.375 C10.67 4.365 10.34 5.355 10 6.375 C9.34 6.375 8.68 6.375 8 6.375 C8 7.035 8 7.695 8 8.375 C4.125 6.5 4.125 6.5 3 5.375 C-1.16990664 4.94718327 -1.16990664 4.94718327 -4.8125 6.6875 C-6.19455846 8.47976225 -6.19455846 8.47976225 -7 11.375 C-8.32 11.375 -9.64 11.375 -11 11.375 C-11.36278744 3.99832205 -11.36278744 3.99832205 -9.98828125 1.63671875 C-6.85451739 -0.35189761 -3.59045686 -0.05749842 0 0 Z " fill="#B04D9D" transform="translate(24,12.625)"/>
<path d="M0 0 C0.33 0.66 0.66 1.32 1 2 C2.65 2 4.3 2 6 2 C6.02721176 3.89575251 6.04649136 5.79161979 6.0625 7.6875 C6.07410156 8.74324219 6.08570313 9.79898437 6.09765625 10.88671875 C6.00865425 13.72410262 5.64939838 16.2438919 5 19 C4.01 18.67 3.02 18.34 2 18 C0.414131 14.828262 0.62133555 11.36486178 0.4375 7.875 C0.39431641 7.12089844 0.35113281 6.36679687 0.30664062 5.58984375 C0.2005168 3.72678112 0.09974999 1.86341476 0 0 Z " fill="#FF6941" transform="translate(5,22)"/>
<path d="M0 0 C1.32278481 5.41139241 1.32278481 5.41139241 -0.0625 7.9375 C-2.91093248 9.49954362 -4.93504903 8.74921024 -8 8 C-9.32278481 2.58860759 -9.32278481 2.58860759 -7.9375 0.0625 C-5.08906752 -1.49954362 -3.06495097 -0.74921024 0 0 Z " fill="#ED5869" transform="translate(28,20)"/>
<path d="M0 0 C2.375 1.625 2.375 1.625 4 4 C4.61195145 7.6717087 4.48706506 9.28813568 2.375 12.375 C-0.71186432 14.48706506 -2.3282913 14.61195145 -6 14 C-8.375 12.375 -8.375 12.375 -10 10 C-10.61195145 6.3282913 -10.48706506 4.71186432 -8.375 1.625 C-5.28813568 -0.48706506 -3.6717087 -0.61195145 0 0 Z M-6.9375 3.0625 C-8.49954362 5.91093248 -7.74921024 7.93504903 -7 11 C-2.92299075 12.12437693 -2.92299075 12.12437693 0.9375 10.9375 C2.49954362 8.08906752 1.74921024 6.06495097 1 3 C-3.07700925 1.87562307 -3.07700925 1.87562307 -6.9375 3.0625 Z " fill="#FAEDF0" transform="translate(27,17)"/>
<path d="M0 0 C0.02692484 2.29160319 0.04636124 4.58329546 0.0625 6.875 C0.07410156 8.15117187 0.08570313 9.42734375 0.09765625 10.7421875 C0 14 0 14 -1 16 C-2.65 16 -4.3 16 -6 16 C-6.625 13.625 -6.625 13.625 -7 11 C-6.34 10.34 -5.68 9.68 -5 9 C-4.39391903 6.94185004 -3.98825831 4.87952543 -3.5625 2.77734375 C-3.376875 2.19082031 -3.19125 1.60429687 -3 1 C-1 0 -1 0 0 0 Z " fill="#F25560" transform="translate(35,18)"/>
<path d="M0 0 C0.33 0.99 0.66 1.98 1 3 C2.98 3 4.96 3 7 3 C6.67 3.66 6.34 4.32 6 5 C5.77532169 6.53668865 5.59203195 8.07968054 5.4375 9.625 C5.35371094 10.44226562 5.26992187 11.25953125 5.18359375 12.1015625 C5.12300781 12.72804688 5.06242188 13.35453125 5 14 C3.35 14 1.7 14 0 14 C-1.86987216 10.26025568 -1.30641834 5.53209172 -0.5 1.5 C-0.335 1.005 -0.17 0.51 0 0 Z " fill="#8E57AE" transform="translate(6,10)"/>
<path d="M0 0 C0.33 0 0.66 0 1 0 C1 4.62 1 9.24 1 14 C-1.97 14 -4.94 14 -8 14 C-8.33 12.35 -8.66 10.7 -9 9 C-7.88625 8.62875 -6.7725 8.2575 -5.625 7.875 C-2.38621238 6.5205979 -2.10727559 6.23787197 -0.5625 2.8125 C-0.376875 1.884375 -0.19125 0.95625 0 0 Z " fill="#FD6646" transform="translate(37,28)"/>
<path d="M0 0 C0.33 0.66 0.66 1.32 1 2 C1.66 1.67 2.32 1.34 3 1 C5.3329866 0.95977609 7.66706666 0.95679753 10 1 C9.21625 1.7425 8.4325 2.485 7.625 3.25 C5.43495469 5.54433318 4.17268614 7.12158858 3 10 C1.68 10 0.36 10 -1 10 C-1.125 2.25 -1.125 2.25 0 0 Z " fill="#B45590" transform="translate(14,14)"/>
<path d="M0 0 C1.0725 0.103125 2.145 0.20625 3.25 0.3125 C3.25 3.3125 3.25 3.3125 1.25 5.5 C0.59 6.098125 -0.07 6.69625 -0.75 7.3125 C-3.06 6.6525 -5.37 5.9925 -7.75 5.3125 C-5.36605526 1.49818842 -4.61542062 0.38461838 0 0 Z " fill="#A947B1" transform="translate(34.75,5.6875)"/>
<path d="M0 0 C2.97 0 5.94 0 9 0 C8 3 8 3 5.6875 4.25 C2.90126985 5.0275526 1.66561622 4.98726527 -1 4 C-0.67 2.68 -0.34 1.36 0 0 Z " fill="#5B5EC2" transform="translate(10,6)"/>
<path d="M0 0 C1.98 0 3.96 0 6 0 C6 1.98 6 3.96 6 6 C4.35 6 2.7 6 1 6 C0.67 4.02 0.34 2.04 0 0 Z " fill="#D5517B" transform="translate(5,18)"/>
<path d="M0 0 C1.32 0 2.64 0 4 0 C4.33 1.98 4.66 3.96 5 6 C3.35 6.33 1.7 6.66 0 7 C0 4.69 0 2.38 0 0 Z " fill="#FA5847" transform="translate(13,24)"/>
<path d="M0 0 C0.9075 0.103125 1.815 0.20625 2.75 0.3125 C1.125 2.8125 1.125 2.8125 -1.25 5.3125 C-4.5 5.625 -4.5 5.625 -7.25 5.3125 C-4.05 0.38942308 -4.05 0.38942308 0 0 Z " fill="#8750B5" transform="translate(28.25,5.6875)"/>
<path d="M0 0 C0.33 0.66 0.66 1.32 1 2 C2.65 2 4.3 2 6 2 C5.60196439 4.88575819 5.20990931 5.82189513 2.9375 7.75 C2.298125 8.1625 1.65875 8.575 1 9 C0.67 6.03 0.34 3.06 0 0 Z " fill="#F1424F" transform="translate(5,22)"/>
<path d="M0 0 C1.65 0.33 3.3 0.66 5 1 C5 2.32 5 3.64 5 5 C2.03 4.505 2.03 4.505 -1 4 C-0.67 2.68 -0.34 1.36 0 0 Z " fill="#FA5850" transform="translate(21,24)"/>
<path d="M0 0 C0.99 0.33 1.98 0.66 3 1 C3.6875 3.0625 3.6875 3.0625 4 5 C3.01 5.33 2.02 5.66 1 6 C1 6.66 1 7.32 1 8 C0.01 7.67 -0.98 7.34 -2 7 C-1.34 4.69 -0.68 2.38 0 0 Z " fill="#DA7BB0" transform="translate(31,13)"/>
<path d="M0 0 C0.33 0 0.66 0 1 0 C1 4.62 1 9.24 1 14 C0.01 13.67 -0.98 13.34 -2 13 C-1.67 11.35 -1.34 9.7 -1 8 C-1.66 7.67 -2.32 7.34 -3 7 C-2.34 6.34 -1.68 5.68 -1 5 C-0.35232207 2.42938689 -0.35232207 2.42938689 0 0 Z " fill="#F2515D" transform="translate(37,28)"/>
<path d="M0 0 C0.99 0.99 1.98 1.98 3 3 C2.6875 6.6875 2.6875 6.6875 2 10 C1.01 10 0.02 10 -1 10 C-0.67 6.7 -0.34 3.4 0 0 Z " fill="#FF8E50" transform="translate(11,32)"/>
<path d="M0 0 C0.33 0 0.66 0 1 0 C1.32152515 3.53677664 1.4131192 5.3962104 -0.625 8.375 C-3.6037896 10.4131192 -5.46322336 10.32152515 -9 10 C-9 9.34 -9 8.68 -9 8 C-5.535 7.505 -5.535 7.505 -2 7 C-2 6.34 -2 5.68 -2 5 C-1.34 5 -0.68 5 0 5 C0 3.35 0 1.7 0 0 Z " fill="#FDE7E6" transform="translate(30,21)"/>
<path d="M0 0 C0 2.64 0 5.28 0 8 C-1.32 7.67 -2.64 7.34 -4 7 C-3.625 4.0625 -3.625 4.0625 -3 1 C-1 0 -1 0 0 0 Z " fill="#E14479" transform="translate(35,18)"/>
<path d="M0 0 C1.65 0.33 3.3 0.66 5 1 C5 1.99 5 2.98 5 4 C2.69 4 0.38 4 -2 4 C-1.34 2.68 -0.68 1.36 0 0 Z " fill="#FFC551" transform="translate(18,38)"/>
<path d="M0 0 C0.3125 2.3125 0.3125 2.3125 0 5 C-2.5 6.8125 -2.5 6.8125 -5 8 C-3.91891892 0 -3.91891892 0 0 0 Z " fill="#FB5344" transform="translate(11,27)"/>
<path d="M0 0 C3.3 0 6.6 0 10 0 C7.60236815 2.39763185 6.66726502 2.34280586 3.375 2.625 C2.55773437 2.69976562 1.74046875 2.77453125 0.8984375 2.8515625 C0.27195312 2.90054687 -0.35453125 2.94953125 -1 3 C-0.67 2.01 -0.34 1.02 0 0 Z " fill="#9055AA" transform="translate(16,13)"/>
<path d="M0 0 C0 1.98 0 3.96 0 6 C-1.32 5.67 -2.64 5.34 -4 5 C-4 4.01 -4 3.02 -4 2 C-1 0 -1 0 0 0 Z " fill="#FC5544" transform="translate(32,28)"/>
<path d="M0 0 C0 0.66 0 1.32 0 2 C-2.31 2 -4.62 2 -7 2 C-7 1.34 -7 0.68 -7 0 C-4.3333581 -1.33332095 -2.83319697 -0.67102033 0 0 Z " fill="#D45780" transform="translate(27,20)"/>
<path d="M0 0 C1.32 0 2.64 0 4 0 C4.33 1.65 4.66 3.3 5 5 C4.01 5 3.02 5 2 5 C1.34 3.35 0.68 1.7 0 0 Z " fill="#FF9349" transform="translate(24,37)"/>
<path d="M0 0 C1.98 0 3.96 0 6 0 C6 0.99 6 1.98 6 3 C4.35 3 2.7 3 1 3 C0.67 2.01 0.34 1.02 0 0 Z " fill="#B14E8B" transform="translate(5,18)"/>
<path d="M0 0 C0.66 0.33 1.32 0.66 2 1 C1.67 1.66 1.34 2.32 1 3 C0.34 3 -0.32 3 -1 3 C-1.66 4.65 -2.32 6.3 -3 8 C-3.75 6.25 -3.75 6.25 -4 4 C-2.0625 1.75 -2.0625 1.75 0 0 Z " fill="#EFEAF5" transform="translate(15,11)"/>
</svg>
