<?xml version="1.0" encoding="UTF-8"?>
<svg version="1.1" xmlns="http://www.w3.org/2000/svg" width="24" height="24">
<path d="M0 0 C3.52775489 0.30237899 5.03808865 1.02980851 7.875 3.25 C10 6 10 6 10.125 8.5 C8.63086898 11.82029115 6.81504967 13.7086805 4 16 C2.68 16 1.36 16 0 16 C0.55728913 12.65626525 1.35173889 9.96687001 3 7 C2.505 6.5875 2.01 6.175 1.5 5.75 C0 4 0 4 0 0 Z " fill="#000000" transform="translate(12,4)"/>
<path d="M0 0 C3.52775489 0.30237899 5.03808865 1.02980851 7.875 3.25 C10 6 10 6 10.125 8.5 C8.63086898 11.82029115 6.81504967 13.7086805 4 16 C2.68 16 1.36 16 0 16 C0.55728913 12.65626525 1.35173889 9.96687001 3 7 C2.505 6.5875 2.01 6.175 1.5 5.75 C0 4 0 4 0 0 Z " fill="#000000" transform="translate(2,4)"/>
</svg>
