<?xml version="1.0" encoding="UTF-8"?>
<svg version="1.1" xmlns="http://www.w3.org/2000/svg" width="24" height="24">
<path d="M0 0 C-0.55728913 3.34373475 -1.35173889 6.03312999 -3 9 C-2.505 9.4125 -2.01 9.825 -1.5 10.25 C0 12 0 12 0 16 C-3.52775489 15.69762101 -5.03808865 14.97019149 -7.875 12.75 C-10 10 -10 10 -10.125 7.5 C-7.87545073 2.50100162 -5.54682812 0 0 0 Z " fill="#000000" transform="translate(22,4)"/>
<path d="M0 0 C-0.55728913 3.34373475 -1.35173889 6.03312999 -3 9 C-2.505 9.4125 -2.01 9.825 -1.5 10.25 C0 12 0 12 0 16 C-3.52775489 15.69762101 -5.03808865 14.97019149 -7.875 12.75 C-10 10 -10 10 -10.125 7.5 C-7.87545073 2.50100162 -5.54682812 0 0 0 Z " fill="#000000" transform="translate(12,4)"/>
</svg>
