<?xml version="1.0" encoding="UTF-8"?>
<svg version="1.1" xmlns="http://www.w3.org/2000/svg" width="48" height="48">
<path d="M0 0 C0.7027002 -0.00191345 1.40540039 -0.0038269 2.12939453 -0.00579834 C3.61556354 -0.00715975 5.10174445 -0.00346632 6.58789062 0.00488281 C8.86615646 0.01558346 11.14363377 0.00498661 13.421875 -0.0078125 C14.86458508 -0.0064909 16.30729466 -0.00392849 17.75 0 C19.06742188 0.00225586 20.38484375 0.00451172 21.7421875 0.00683594 C24.875 0.265625 24.875 0.265625 26.875 2.265625 C27.13378906 5.3984375 27.13378906 5.3984375 27.140625 9.390625 C27.14349518 10.44467529 27.14349518 10.44467529 27.14642334 11.52001953 C27.14778475 13.00618854 27.14409132 14.49236945 27.13574219 15.97851562 C27.12504154 18.25678146 27.13563839 20.53425877 27.1484375 22.8125 C27.1471159 24.25521008 27.14455349 25.69791966 27.140625 27.140625 C27.13836914 28.45804688 27.13611328 29.77546875 27.13378906 31.1328125 C26.875 34.265625 26.875 34.265625 24.875 36.265625 C21.7421875 36.52441406 21.7421875 36.52441406 17.75 36.53125 C17.0472998 36.53316345 16.34459961 36.5350769 15.62060547 36.53704834 C14.13443646 36.53840975 12.64825555 36.53471632 11.16210938 36.52636719 C8.88384354 36.51566654 6.60636623 36.52626339 4.328125 36.5390625 C2.88541492 36.5377409 1.44270534 36.53517849 0 36.53125 C-1.31742188 36.52899414 -2.63484375 36.52673828 -3.9921875 36.52441406 C-7.125 36.265625 -7.125 36.265625 -9.125 34.265625 C-9.38378906 31.1328125 -9.38378906 31.1328125 -9.390625 27.140625 C-9.39253845 26.4379248 -9.3944519 25.73522461 -9.39642334 25.01123047 C-9.39778475 23.52506146 -9.39409132 22.03888055 -9.38574219 20.55273438 C-9.37504154 18.27446854 -9.38563839 15.99699123 -9.3984375 13.71875 C-9.3971159 12.27603992 -9.39455349 10.83333034 -9.390625 9.390625 C-9.38836914 8.07320312 -9.38611328 6.75578125 -9.38378906 5.3984375 C-8.87226161 -0.79394015 -5.32764374 0.00912268 0 0 Z " fill="#04A9F4" transform="translate(15.125,5.734375)"/>
<path d="M0 0 C1.37478516 0.01740234 1.37478516 0.01740234 2.77734375 0.03515625 C3.69644531 0.04417969 4.61554687 0.05320312 5.5625 0.0625 C6.27277344 0.07410156 6.98304687 0.08570313 7.71484375 0.09765625 C6.79815068 6.20090222 5.97861744 11.37293405 1.71484375 16.09765625 C-3.45304829 19.07913243 -7.47844761 19.5897502 -13.28515625 19.09765625 C-13.94515625 18.43765625 -14.60515625 17.77765625 -15.28515625 17.09765625 C-13.96515625 16.43765625 -12.64515625 15.77765625 -11.28515625 15.09765625 C-11.78015625 14.64390625 -12.27515625 14.19015625 -12.78515625 13.72265625 C-14.28515625 12.09765625 -14.28515625 12.09765625 -14.28515625 10.09765625 C-14.45015625 9.29328125 -14.61515625 8.48890625 -14.78515625 7.66015625 C-15.28515625 5.09765625 -15.28515625 5.09765625 -15.28515625 2.09765625 C-14.76953125 2.36578125 -14.25390625 2.63390625 -13.72265625 2.91015625 C-10.6211421 4.42115032 -7.46252819 5.75338351 -4.28515625 7.09765625 C-4.14078125 6.12828125 -3.99640625 5.15890625 -3.84765625 4.16015625 C-3.10794106 0.13281799 -3.10794106 0.13281799 0 0 Z " fill="#F1FAFE" transform="translate(28.28515625,14.90234375)"/>
</svg>
